<svg width="1122.52" height="793.701" viewBox="0 0 841.89 595.276" xmlns="http://www.w3.org/2000/svg" xmlns:xlink="http://www.w3.org/1999/xlink" color-interpolation-filters="sRGB" stroke-linecap="square" stroke-miterlimit="3" fill="none" fill-rule="evenodd" font-size="12" xml:space="preserve" overflow="visible"><defs id="Markers"><marker refX="-7.04" markerUnits="strokeWidth" orient="auto" id="mrkr4-13" stroke="#4672C4" stroke-width="0.284091" fill="#4672C4" overflow="visible"><use width="100%" height="100%" xlink:href="#lend4" transform="scale(-3.52 -3.52)"></use></marker><g id="lend4"><path d="M2 1 0 0 2-1 2 1"/></g></defs><g><g id="shape1-1" transform="translate(368.504 -510.236)"><rect x="0" y="552.756" width="113.386" height="42.5197" stroke="#C7C8C8" stroke-width="0.25" fill="#4672C4"/><text fill="#FEFFFF" font-family="黑体" font-weight="700" font-size="83.3336%" x="16.54" y="570.69">更新局部相对排名<tspan font-size="100%" x="21.56" dy="1.331em">找到近邻排名国</tspan></text></g><g id="shape2-5" transform="translate(368.504 -425.197)"><rect x="0" y="552.756" width="113.386" height="42.5197" stroke="#C7C8C8" stroke-width="0.25" fill="#4672C4"/><text fill="#FEFFFF" font-family="黑体" font-weight="700" font-size="83.3336%" x="6.5" y="577.34">按概率与所有邻国合作</text></g><g id="shape3-8" transform="translate(418.11 -510.236)"><path d="M7.09 595.28 7.09 630.76" stroke="#4672C4" stroke-linecap="round" stroke-linejoin="round" marker-end="url(#mrkr4-13)"/><rect x="-8.97585" y="615.463" width="32.1251" height="10.6501" stroke-linecap="butt" fill="#FFFFFF"/><text fill="#3C63AC" font-family="黑体" font-weight="700" font-size="66.6664%" x="-8.98" y="623.45">排名变化</text></g><g id="shape7-16" transform="translate(275.235 -340.157)"><rect x="0" y="552.756" width="113.386" height="42.5197" stroke="#C7C8C8" stroke-width="0.25" fill="#4672C4"/><text fill="#FEFFFF" font-family="黑体" font-weight="700" font-size="83.3336%" x="6.5" y="577.34">按概率背叛紧邻排名国</text></g><g id="shape9-19" transform="translate(464.882 -340.157)"><rect x="0" y="552.756" width="113.386" height="42.5197" stroke="#C7C8C8" stroke-width="0.25" fill="#4672C4"/><text fill="#FEFFFF" font-family="黑体" font-weight="700" font-size="83.3336%" x="6.5" y="577.34">与所有近邻国合作共赢</text></g><g id="shape10-22" transform="translate(425.197 -425.197)"><path d="M0 595.28 0 607.05-93.27 607.05-93.27 630.76" stroke="#4672C4" stroke-linecap="round" stroke-linejoin="round" marker-end="url(#mrkr4-13)"/><rect x="-82.163" y="602.423" width="72.2815" height="10.6501" stroke-linecap="butt" fill="#FFFFFF"/><text fill="#3C63AC" font-family="黑体" font-weight="700" font-size="66.6664%" x="-82.16" y="610.41">未开启合作共赢模式</text></g><g id="shape12-29" transform="translate(425.197 -425.197)"><path d="M0 595.28 0 607.05 96.38 607.05 96.38 630.76" stroke="#4672C4" stroke-linecap="round" stroke-linejoin="round" marker-end="url(#mrkr4-13)"/><rect x="16.064" y="601.289" width="64.2502" height="10.6501" stroke-linecap="butt" fill="#FFFFFF"/><text fill="#3C63AC" font-family="黑体" font-weight="700" font-size="66.6664%" x="16.06" y="609.28">开启合作共赢模式</text></g><g id="shape18-36" transform="translate(374.173 -255.118)"><rect x="0" y="552.756" width="113.386" height="42.5197" stroke="#C7C8C8" stroke-width="0.25" fill="#4672C4"/><text fill="#FEFFFF" font-family="黑体" font-weight="700" font-size="83.3336%" x="36.61" y="570.69">计算收益<tspan font-size="100%" x="14.39" dy="1.331em">四种合作</tspan><tspan font-family="Calibri" font-size="100%">/</tspan>背叛状态</text></g><g id="shape19-41" transform="translate(331.928 -340.157)"><path d="M0 595.28 0 607.05 98.94 607.05 98.94 630.76" stroke="#4672C4" stroke-linecap="round" stroke-linejoin="round" marker-end="url(#mrkr4-13)"/></g><g id="shape20-46" transform="translate(521.575 -340.157)"><path d="M0 595.28 0 607.05-90.71 607.05-90.71 630.76" stroke="#4672C4" stroke-linecap="round" stroke-linejoin="round" marker-end="url(#mrkr4-13)"/></g><g id="shape21-51" transform="translate(288.189 -170.079)"><rect x="0" y="552.756" width="113.386" height="42.5197" stroke="#C7C8C8" stroke-width="0.25" fill="#4672C4"/><text fill="#FEFFFF" font-family="黑体" font-weight="700" font-size="83.3336%" x="11.52" y="577.34">模仿对方上一轮决策</text></g><g id="shape23-54" transform="translate(462.992 -170.079)"><rect x="0" y="552.756" width="113.386" height="42.5197" stroke="#C7C8C8" stroke-width="0.25" fill="#4672C4"/><text fill="#FEFFFF" font-family="黑体" font-weight="700" font-size="83.3336%" x="16.54" y="577.34">不模仿继续按概率</text></g><g id="shape24-57" transform="translate(430.866 -255.118)"><path d="M0 595.28 0 607.05-85.98 607.05-85.98 630.76" stroke="#4672C4" stroke-linecap="round" stroke-linejoin="round" marker-end="url(#mrkr4-13)"/><rect x="-76.062" y="604.124" width="64.2502" height="10.6501" stroke-width="7.2" stroke-linecap="butt" fill="#FFFFFF"/><text fill="#3C63AC" font-family="黑体" font-weight="700" font-size="66.6664%" x="-76.06" y="612.11">开启以牙还牙模式</text></g><g id="shape25-64" transform="translate(430.866 -255.118)"><path d="M0 595.28 0 607.05 88.82 607.05 88.82 630.76" stroke="#4672C4" stroke-linecap="round" stroke-linejoin="round" marker-end="url(#mrkr4-13)"/><rect x="7.79634" y="604.124" width="72.2815" height="10.6501" stroke-width="7.2" stroke-linecap="butt" fill="#FFFFFF"/><text fill="#3C63AC" font-family="黑体" font-weight="700" font-size="66.6664%" x="7.8" y="612.11">未开启以牙还牙模式</text></g><g id="shape29-71" transform="translate(288.189 -191.339)"><path d="M0 595.28-45.22 595.28-45.22 255.12 73.27 255.12" stroke="#4672C4" stroke-linecap="round" stroke-linejoin="round" marker-end="url(#mrkr4-13)"/></g><g id="shape30-76" transform="translate(576.378 -191.339)"><path d="M0 595.28 35.1 595.28 35.1 255.12-87.45 255.12" stroke="#4672C4" stroke-linecap="round" stroke-linejoin="round" marker-end="url(#mrkr4-13)"/></g><g id="shape31-81" transform="translate(425.197 -510.236)"><path d="M0 595.28 0 612.85 34.02 612.85 34.02 612.7 60.87 612.7" stroke="#4672C4" stroke-linecap="round" stroke-linejoin="round" marker-end="url(#mrkr4-13)"/><rect x="19.3706" y="608.093" width="32.1251" height="10.6501" stroke-width="7.2" stroke-linecap="butt" fill="#FFFFFF"/><text fill="#3C63AC" font-family="黑体" font-weight="700" font-size="66.6664%" x="19.37" y="616.08">排名不变</text></g><g id="shape32-88" transform="translate(493.11 -471.555)"><rect x="0" y="552.756" width="113.386" height="42.5197" stroke="#C7C8C8" stroke-width="0.25" fill="#4672C4"/><text fill="#FEFFFF" font-family="黑体" font-weight="700" font-size="83.3336%" x="36.61" y="577.34">停止运行</text></g></g></svg>